<svg xmlns="http://www.w3.org/2000/svg" width="1280" height="1280" viewBox="0 0 1280 1280" version="1.1">
	<path fill-opacity="0.122" d="M 506.284 322.510 C 491.917 325.632, 478.506 335.572, 472.032 347.897 C 470.888 350.073, 468.125 357.045, 458.514 382 C 456.713 386.675, 450.863 401.525, 445.512 415 C 440.162 428.475, 433.773 444.900, 431.314 451.500 C 428.855 458.100, 423.534 471.825, 419.488 482 C 415.443 492.175, 407.081 513.550, 400.907 529.500 C 394.732 545.450, 384.092 572.900, 377.262 590.500 C 370.432 608.100, 364.041 624.750, 363.059 627.500 C 362.077 630.250, 359.230 637.675, 356.733 644 C 351.565 657.090, 337.878 692, 334.973 699.500 C 331.195 709.256, 320.106 737.741, 313.562 754.500 C 309.911 763.850, 304.402 778.025, 301.320 786 C 298.238 793.975, 292.812 807.925, 289.263 817 C 285.714 826.075, 281.770 836.200, 280.498 839.500 C 279.226 842.800, 275.208 853.061, 271.568 862.303 C 263.729 882.206, 261.602 890.961, 262.457 899.801 C 264.919 925.265, 284.963 942, 313 942 C 329.598 942, 342.002 936.551, 352.685 924.564 C 358.144 918.439, 360.797 913.027, 370.363 888.500 C 373.366 880.800, 378.825 866.850, 382.494 857.500 C 386.163 848.150, 392.087 832.850, 395.658 823.500 C 399.229 814.150, 403.646 802.675, 405.473 798 C 407.300 793.325, 410.849 784.247, 413.360 777.827 C 415.870 771.407, 421.358 757.232, 425.554 746.327 C 429.751 735.422, 435.553 720.425, 438.449 713 C 453.652 674.020, 459.340 659.395, 463.535 648.500 C 466.077 641.900, 469.647 632.675, 471.469 628 C 473.291 623.325, 475.949 616.460, 477.375 612.744 C 481.275 602.583, 484.139 595.196, 491.429 576.500 C 495.075 567.150, 499.167 556.575, 500.521 553 C 501.876 549.425, 506.826 536.600, 511.521 524.500 C 523.457 493.740, 530.377 475.842, 536.651 459.500 C 538.551 454.550, 542.301 444.875, 544.984 438 C 553.111 417.173, 562.609 391.949, 565.381 383.832 C 570.251 369.574, 568.347 352.466, 560.694 341.701 C 549.093 325.386, 527.729 317.850, 506.284 322.510 M 727.902 322.503 C 715.096 325.055, 702.124 333.896, 695.086 344.868 C 693.452 347.416, 690.113 354.675, 687.665 361 C 685.218 367.325, 679.838 381.050, 675.708 391.500 C 660.690 429.510, 656.705 439.713, 652.468 451 C 650.093 457.325, 645.007 470.375, 641.165 480 C 632.892 500.723, 629.075 510.512, 621.670 530 C 618.639 537.975, 613.848 550.350, 611.023 557.500 C 608.198 564.650, 604.596 573.875, 603.020 578 C 601.444 582.125, 598.744 589.100, 597.022 593.500 C 595.300 597.900, 592.595 604.875, 591.012 609 C 586.674 620.303, 576.119 647.578, 573.017 655.500 C 571.510 659.350, 566.364 672.625, 561.582 685 C 551.115 712.086, 551.145 712.009, 540.595 739 C 525.708 777.088, 524.843 779.318, 520.236 791.500 C 513.840 808.411, 511.539 814.324, 494.744 857 C 485.974 879.284, 484.042 886.172, 484.020 895.229 C 483.982 911.561, 490.941 925.103, 503.799 933.722 C 512.441 939.515, 521.478 942.058, 533.537 942.091 C 547.688 942.129, 559.177 937.958, 569.592 928.999 C 577.009 922.620, 580.959 915.361, 590.540 890.500 C 595.785 876.891, 597.221 873.202, 606.492 849.500 C 615.823 825.648, 620.220 814.330, 625.530 800.500 C 628.065 793.900, 631.193 785.800, 632.482 782.500 C 633.771 779.200, 636.475 772.225, 638.491 767 C 640.507 761.775, 643.647 753.675, 645.469 749 C 647.291 744.325, 649.904 737.575, 651.276 734 C 652.648 730.425, 656.056 721.650, 658.850 714.500 C 661.643 707.350, 667.350 692.725, 671.532 682 C 675.713 671.275, 681.328 656.875, 684.009 650 C 686.690 643.125, 692.331 628.500, 696.545 617.500 C 700.758 606.500, 706.664 591.200, 709.668 583.500 C 715.559 568.399, 725.957 541.595, 729.063 533.500 C 730.119 530.750, 734.851 518.600, 739.579 506.500 C 744.308 494.400, 749.230 481.800, 750.517 478.500 C 751.804 475.200, 757.856 459.450, 763.966 443.500 C 770.076 427.550, 775.721 412.925, 776.510 411 C 780.228 401.928, 786.422 384.855, 788.117 379.003 C 793.913 359.002, 784.800 337.697, 766.178 327.709 C 754.465 321.427, 741.886 319.716, 727.902 322.503 M 949.035 322.560 C 934.430 325.727, 921.170 336.014, 914.566 349.301 C 912.598 353.261, 908.335 363.475, 905.094 372 C 899.143 387.650, 893.936 401.138, 885.018 424 C 882.336 430.875, 876.666 445.500, 872.418 456.500 C 868.169 467.500, 862.930 481, 860.775 486.500 C 853.350 505.450, 844.838 527.512, 843.028 532.500 C 841.455 536.835, 825.036 579.056, 808.806 620.500 C 806.007 627.650, 802.491 636.650, 800.995 640.500 C 798.142 647.842, 766.301 729.658, 755.268 758 C 751.735 767.075, 747.810 777.425, 746.547 781 C 745.283 784.575, 743.534 789.075, 742.659 791 C 738.613 799.900, 711.865 869.183, 708.299 880 C 706.165 886.473, 705.882 888.869, 706.230 897.500 C 706.576 906.095, 707.072 908.451, 709.761 914.266 C 715.519 926.720, 727.145 936.394, 741.154 940.388 C 749.191 942.680, 763.566 942.512, 771.903 940.029 C 785.054 936.112, 797.133 926.591, 802.575 915.853 C 804.939 911.187, 810.974 896.083, 825.291 859 C 826.672 855.425, 830.280 846.186, 833.311 838.470 C 836.341 830.753, 841.818 816.578, 845.481 806.970 C 849.145 797.361, 854.552 783.425, 857.498 776 C 860.443 768.575, 864.496 758.225, 866.504 753 C 868.513 747.775, 871.648 739.675, 873.472 735 C 875.297 730.325, 879.060 720.650, 881.837 713.500 C 884.613 706.350, 889.872 692.850, 893.523 683.500 C 901.913 662.018, 903.961 656.745, 908.482 645 C 910.492 639.775, 913.190 632.800, 914.476 629.500 C 915.762 626.200, 920.298 614.500, 924.557 603.500 C 928.815 592.500, 933.617 580.125, 935.227 576 C 936.837 571.875, 939.448 565.125, 941.030 561 C 945.405 549.591, 959.975 512.126, 966.504 495.500 C 967.799 492.200, 971.173 483.425, 974 476 C 981.727 455.708, 983.895 450.080, 986.522 443.500 C 990.817 432.741, 1007.083 390.052, 1009.115 384.203 C 1012.035 375.804, 1012.676 362.836, 1010.536 355.475 C 1008.072 347.002, 1005.469 342.376, 999.772 336.353 C 987.766 323.658, 968.337 318.376, 949.035 322.560" stroke="none" fill="black" fill-rule="evenodd"/>
	<path fill-opacity="0.576" d="M 505.206 323.557 C 496.634 325.864, 488.982 330.115, 482.481 336.181 C 475.507 342.688, 472.777 347.287, 467.152 362 C 464.944 367.775, 455.907 390.863, 447.069 413.308 C 438.231 435.752, 431 454.335, 431 454.605 C 431 454.874, 426.979 465.310, 422.064 477.797 C 417.150 490.284, 411.117 505.675, 408.658 512 C 406.200 518.325, 398.925 537, 392.492 553.500 C 386.059 570, 378.305 590.025, 375.261 598 C 362.557 631.279, 357.603 644.114, 345.539 675 C 338.556 692.875, 331.341 711.325, 329.505 716 C 326.065 724.761, 301.185 788.651, 288.812 820.500 C 276.556 852.048, 274.912 856.254, 269.995 868.660 C 261.780 889.382, 261.228 902.585, 268.014 916.027 C 276.296 932.433, 291.556 941, 312.500 941 C 329.224 941, 341.986 935.627, 351.862 924.428 C 358.413 917, 357.275 919.610, 386.056 846 C 388.744 839.125, 399.537 811.225, 410.040 784 C 420.543 756.775, 431.517 728.425, 434.426 721 C 444.047 696.441, 456.794 663.706, 462.267 649.500 C 467.955 634.737, 540.362 447.627, 547.015 430.500 C 566.938 379.209, 567.335 377.893, 566.797 364.834 C 566.406 355.346, 566.004 353.451, 563.161 347.675 C 557.607 336.395, 545.545 326.940, 532.307 323.492 C 525.191 321.638, 512.217 321.669, 505.206 323.557 M 726.634 323.586 C 713.456 326.776, 699.318 337.686, 693.702 349 C 692.201 352.025, 686.218 366.650, 680.407 381.500 C 674.597 396.350, 666.757 416.375, 662.986 426 C 652.820 451.948, 641.183 481.976, 628.883 514 C 622.862 529.675, 617.062 544.525, 615.995 547 C 614.927 549.475, 606.590 570.850, 597.470 594.500 C 588.349 618.150, 577.796 645.375, 574.020 655 C 570.243 664.625, 564.151 680.375, 560.481 690 C 552.212 711.691, 551.312 714.015, 539.962 743 C 534.901 755.925, 526.607 777.300, 521.531 790.500 C 516.455 803.700, 506.879 828.450, 500.251 845.500 C 485.639 883.093, 485 885.190, 485 895.576 C 485 916.393, 497.075 932.928, 516.705 938.991 C 525.664 941.758, 541.300 941.769, 550.217 939.015 C 562.358 935.265, 574.092 925.672, 579.435 915.129 C 580.843 912.350, 584.071 904.772, 586.608 898.288 C 595.837 874.703, 609.301 840.119, 615.529 824 C 619.035 814.925, 625.913 797.150, 630.812 784.500 C 635.712 771.850, 643.642 751.375, 648.434 739 C 657.420 715.794, 659.784 709.744, 670.506 682.500 C 673.969 673.700, 680.257 657.500, 684.479 646.500 C 688.701 635.500, 694.347 620.875, 697.025 614 C 699.704 607.125, 704.856 593.850, 708.474 584.500 C 712.092 575.150, 716.807 563, 718.952 557.500 C 737.431 510.125, 774.688 413.617, 780.690 397.578 C 788.854 375.763, 790.099 369.198, 788.101 358.500 C 784.118 337.177, 763.851 321.820, 740.040 322.083 C 735.893 322.129, 729.860 322.806, 726.634 323.586 M 947.899 323.448 C 938.229 326.115, 931.921 329.852, 924.613 337.243 C 916.232 345.719, 915.409 347.266, 905.568 373 C 898.684 391.004, 876.133 449.225, 861.800 486 C 852.146 510.770, 843.955 532.100, 842.023 537.500 C 841.039 540.250, 836.312 552.400, 831.519 564.500 C 821.986 588.566, 821.572 589.624, 810.628 618 C 806.492 628.725, 798.782 648.525, 793.495 662 C 788.208 675.475, 782.068 691.225, 779.851 697 C 777.633 702.775, 774.329 711.325, 772.507 716 C 770.686 720.675, 767.541 728.775, 765.520 734 C 763.498 739.225, 760.306 747.376, 758.427 752.113 C 756.547 756.850, 752.367 767.650, 749.139 776.113 C 745.910 784.576, 738.079 804.775, 731.737 821 C 705.968 886.919, 706.585 884.980, 707.168 898.252 C 707.509 906.032, 708.076 908.573, 710.738 914.259 C 716.428 926.411, 727.181 935.366, 740.932 939.405 C 744.249 940.379, 750.114 941, 756 941 C 769.947 941, 778.962 937.999, 789.747 929.767 C 798.867 922.805, 801.810 917.308, 815.862 881 C 819.161 872.475, 825.541 856.050, 830.039 844.500 C 834.538 832.950, 842.848 811.575, 848.508 797 C 854.168 782.425, 865.089 754.300, 872.778 734.500 C 880.467 714.700, 889.330 691.975, 892.473 684 C 895.616 676.025, 903.117 656.675, 909.141 641 C 915.165 625.325, 922.826 605.525, 926.164 597 C 936.235 571.284, 959.133 512.227, 977.731 464 C 1011.334 376.867, 1011 377.833, 1011 367.839 C 1011 354.592, 1007.269 345.180, 998.549 336.431 C 992.175 330.036, 984.846 325.842, 975.869 323.453 C 969.343 321.716, 954.189 321.713, 947.899 323.448" stroke="none" fill="black" fill-rule="evenodd"/>
	<path fill-opacity="0.400" d="M 503.398 324.889 C 490.502 328.581, 479.314 337.744, 473.529 349.352 C 471.569 353.283, 466.577 365.275, 462.435 376 C 455.482 394.003, 444.933 421.036, 423.997 474.500 C 419.474 486.050, 412.435 504.275, 408.355 515 C 404.275 525.725, 399.857 537.200, 398.537 540.500 C 391.130 559.015, 374.287 602.573, 365.475 626 C 363.717 630.675, 360.890 638.100, 359.194 642.500 C 356.325 649.942, 354.614 654.311, 346.860 674 C 345.235 678.125, 342.612 684.875, 341.030 689 C 339.448 693.125, 336.837 699.875, 335.229 704 C 333.620 708.125, 329.972 717.575, 327.122 725 C 324.272 732.425, 321.066 740.525, 319.997 743 C 318.929 745.475, 315.525 754.025, 312.433 762 C 309.341 769.975, 304.791 781.675, 302.323 788 C 299.854 794.325, 296.793 802.200, 295.520 805.500 C 292.343 813.734, 284.514 833.806, 275.630 856.500 C 264.643 884.565, 264.500 885.079, 264.500 896.500 C 264.500 905.731, 264.753 907.034, 267.788 913.443 C 273.789 926.116, 280.483 932.172, 294.526 937.633 C 300.461 939.941, 303.065 940.355, 312 940.414 C 324.276 940.495, 332.138 938.296, 341.724 932.100 C 352.502 925.134, 356.915 918.435, 365.853 895.474 C 368.630 888.338, 373.913 874.850, 377.592 865.500 C 387.127 841.266, 389.885 834.172, 391.978 828.500 C 394.131 822.664, 400.527 806.096, 408.001 787 C 418.427 760.359, 421.125 753.367, 424.405 744.500 C 426.235 739.550, 430.234 729.200, 433.291 721.500 C 436.347 713.800, 443.645 695.125, 449.509 680 C 455.373 664.875, 462.547 646.425, 465.452 639 C 468.357 631.575, 473.091 619.425, 475.972 612 C 478.854 604.575, 482.703 594.675, 484.528 590 C 490.130 575.642, 494.527 564.241, 501.495 546 C 505.173 536.375, 509.020 526.475, 510.045 524 C 511.069 521.525, 513.543 515.225, 515.541 510 C 517.539 504.775, 520.223 497.800, 521.505 494.500 C 522.788 491.200, 531.092 469.600, 539.960 446.500 C 548.828 423.400, 556.732 402.925, 557.524 401 C 561.842 390.499, 565.835 377.729, 566.442 372.474 C 568.924 350.979, 555.811 331.655, 534.217 324.985 C 526.019 322.453, 512.059 322.410, 503.398 324.889 M 729.500 323.628 C 717.680 326.583, 707.513 332.353, 700.839 339.896 C 695.647 345.763, 693.170 351.006, 681.418 381 C 676.139 394.475, 669.419 411.575, 666.485 419 C 663.551 426.425, 659.288 437.450, 657.013 443.500 C 652.163 456.398, 650.937 459.541, 639.649 488.041 C 634.956 499.888, 628.664 516.088, 625.668 524.041 C 622.671 531.993, 617.284 545.925, 613.697 555 C 610.109 564.075, 604.817 577.575, 601.935 585 C 599.054 592.425, 595.471 601.650, 593.974 605.500 C 592.476 609.350, 588.763 619.025, 585.723 627 C 582.682 634.975, 576.726 650.275, 572.487 661 C 568.248 671.725, 563.954 682.750, 562.945 685.500 C 557.640 699.961, 546.940 727.760, 536.965 753 C 529.521 771.835, 525.438 782.435, 519.019 799.588 C 516.326 806.787, 513.440 814.212, 512.606 816.088 C 511.773 817.965, 509.532 823.550, 507.626 828.500 C 505.721 833.450, 501.607 844.025, 498.484 852 C 485.832 884.308, 484.337 890.272, 485.980 901.862 C 489.123 924.019, 506.194 938.900, 530.500 940.670 C 549.943 942.087, 570.441 930.963, 578.754 914.483 C 580.414 911.193, 586.135 897.250, 591.467 883.500 C 596.799 869.750, 605.888 846.350, 611.666 831.500 C 624.550 798.383, 625.891 794.925, 630.485 783 C 632.497 777.775, 636.345 767.875, 639.035 761 C 644.161 747.898, 655.509 718.747, 659.471 708.500 C 660.747 705.200, 664.356 695.975, 667.491 688 C 679.224 658.153, 681.608 652.012, 693.307 621.500 C 696.892 612.150, 702.808 596.850, 706.454 587.500 C 719.079 555.121, 720.898 550.444, 725.507 538.500 C 733.883 516.794, 734.944 514.051, 737.392 507.744 C 738.725 504.310, 742.712 494.075, 746.252 485 C 752.991 467.725, 761.363 446.086, 767.532 430 C 769.535 424.775, 772.237 417.800, 773.535 414.500 C 785.524 384.021, 787.268 378.542, 787.754 369.821 C 788.143 362.847, 787.822 359.772, 786.121 354.173 C 782.206 341.283, 771.199 330.228, 757.500 325.427 C 752.595 323.708, 733.967 322.512, 729.500 323.628 M 945.883 324.905 C 929.440 330.165, 917.619 342.133, 911.607 359.606 C 910.303 363.398, 905.786 375.227, 901.570 385.893 C 897.354 396.559, 892.325 409.384, 890.393 414.393 C 885.002 428.371, 875.426 453.125, 870.043 467 C 867.376 473.875, 861.980 487.825, 858.052 498 C 854.124 508.175, 849.831 519.200, 848.512 522.500 C 847.192 525.800, 842.737 537.275, 838.611 548 C 834.485 558.725, 828.347 574.475, 824.971 583 C 821.595 591.525, 817.801 601.425, 816.540 605 C 815.279 608.575, 809.004 624.775, 802.596 641 C 788.278 677.255, 784.190 687.714, 769.961 724.500 C 763.792 740.450, 756.737 758.675, 754.283 765 C 751.830 771.325, 749.015 778.750, 748.028 781.500 C 747.042 784.250, 741.937 797.300, 736.684 810.500 C 725.476 838.663, 716.297 862.547, 711.342 876.441 C 707.936 885.990, 707.812 886.818, 708.196 897.441 C 708.563 907.583, 708.870 909.032, 711.894 914.911 C 720.221 931.101, 736.395 940.442, 756 940.383 C 770.696 940.340, 782.090 935.868, 792.304 926.134 C 799.239 919.526, 801.975 914.468, 810.499 892.500 C 813.914 883.700, 821.767 863.450, 827.952 847.500 C 834.136 831.550, 841.138 813.550, 843.513 807.500 C 845.887 801.450, 849.487 792.225, 851.512 787 C 853.538 781.775, 857.129 772.550, 859.492 766.500 C 866.831 747.711, 871.078 736.825, 874.514 728 C 876.335 723.325, 881.508 710.050, 886.011 698.500 C 906.740 645.332, 909.731 637.621, 920.343 610 C 927.760 590.693, 931.235 581.736, 947.503 540 C 952.112 528.175, 957.522 514.225, 959.526 509 C 961.529 503.775, 965.359 493.875, 968.037 487 C 970.715 480.125, 979.034 458.525, 986.522 439 C 994.011 419.475, 1001.183 400.800, 1002.461 397.500 C 1008.764 381.218, 1010 376.309, 1010 367.550 C 1010 346.095, 997.452 329.999, 976.465 324.533 C 968.356 322.421, 953.066 322.607, 945.883 324.905" stroke="none" fill="black" fill-rule="evenodd"/>
	<path fill-opacity="0.122" d="M 506 325.445 C 495.028 327.993, 483.522 335.646, 477.635 344.309 C 475.696 347.164, 472.257 354.225, 469.994 360 C 467.731 365.775, 464.782 373.117, 463.440 376.316 C 462.098 379.515, 461 382.580, 461 383.128 C 461 383.676, 459.932 386.458, 458.626 389.312 C 457.321 392.165, 453.882 400.575, 450.984 408 C 448.086 415.425, 444.395 424.875, 442.781 429 C 441.167 433.125, 438.465 440.100, 436.777 444.500 C 435.089 448.900, 432.239 456.325, 430.443 461 C 428.647 465.675, 426.002 472.650, 424.566 476.500 C 423.129 480.350, 421.525 484.400, 421 485.500 C 419.800 488.015, 415.547 499.375, 412.442 508.354 C 411.139 512.123, 409.669 515.723, 409.174 516.354 C 408.680 516.984, 407.980 518.737, 407.619 520.250 C 407.041 522.668, 407.251 523, 409.361 523 C 411.698 523, 411.778 523.271, 412.386 533.250 C 412.730 538.888, 412.938 544.175, 412.848 545 C 412.758 545.825, 412.756 548.413, 412.842 550.750 L 413 555 417.930 555 C 422.282 555, 422.898 554.736, 423.180 552.750 C 423.459 550.790, 424.176 550.461, 428.750 550.198 C 433.571 549.920, 434 549.696, 434 547.448 C 434 545.143, 434.326 545, 439.593 545 L 445.185 545 444.843 550.501 L 444.500 556.003 449.708 556.001 L 454.916 556 455.208 563.750 L 455.500 571.500 460.750 571.802 C 465.571 572.080, 466 572.304, 466 574.552 C 466 576.853, 466.331 577, 471.500 577 L 477 577 477 582.500 L 477 588 480.500 588 C 482.773 588, 484 587.526, 484 586.649 C 484 585.906, 485.052 583.318, 486.338 580.899 C 487.623 578.480, 489.458 574.143, 490.414 571.262 C 491.370 568.381, 492.569 565.767, 493.076 565.453 C 493.584 565.139, 494 564.194, 494 563.353 C 494 561.982, 501.126 543.119, 504.523 535.500 C 505.258 533.850, 506.979 529.575, 508.347 526 C 509.715 522.425, 512.897 514.228, 515.417 507.784 C 517.938 501.341, 520 495.784, 520 495.436 C 520 495.087, 520.643 493.384, 521.429 491.651 C 522.727 488.789, 526.136 480.031, 534.724 457.500 C 536.401 453.100, 538.104 448.375, 538.509 447 C 538.914 445.625, 539.647 443.995, 540.138 443.378 C 540.630 442.761, 542.124 439.161, 543.458 435.378 C 544.792 431.595, 547.504 424.225, 549.484 419 C 551.464 413.775, 554.445 405.900, 556.109 401.500 C 564.597 379.047, 566.244 372.861, 565.697 365.500 C 564.442 348.627, 555.270 335.518, 539.549 328.128 C 530.660 323.949, 517.107 322.866, 506 325.445 M 726.984 325.356 C 720.864 326.675, 711.488 331.590, 705.758 336.483 C 698.958 342.290, 693.818 350.930, 688.973 364.697 C 687.967 367.555, 686.476 371.380, 685.660 373.197 C 684.844 375.014, 683.257 378.975, 682.135 382 C 679.183 389.955, 675.157 400.034, 673.547 403.500 C 672.780 405.150, 671.270 408.975, 670.191 412 C 669.112 415.025, 665.914 423.350, 663.084 430.500 C 660.255 437.650, 656.844 446.425, 655.505 450 C 654.166 453.575, 647.501 470.675, 640.695 488 C 625.179 527.492, 622 535.743, 622 536.513 C 622 536.852, 620.875 539.588, 619.500 542.594 C 618.125 545.600, 617 548.290, 617 548.572 C 617 548.854, 614.059 556.604, 610.466 565.793 C 606.872 574.982, 601.401 589.025, 598.310 597 C 595.218 604.975, 591.818 613.525, 590.755 616 C 589.691 618.475, 588.010 622.975, 587.018 626 C 586.025 629.025, 583.184 636.675, 580.703 643 C 578.222 649.325, 575.888 655.625, 575.515 657 C 575.143 658.375, 573.975 661.408, 572.919 663.739 C 570.610 668.839, 570.597 669, 572.500 669 C 573.425 669, 574 669.939, 574 671.450 C 574 673.731, 574.396 673.921, 579.750 674.200 L 585.500 674.500 585.207 677.592 C 585.030 679.462, 585.524 681.190, 586.457 681.964 C 588.417 683.591, 588.437 685, 586.500 685 C 585.567 685, 585 685.944, 585 687.500 C 585 689.833, 585.333 690, 590 690 C 594.889 690, 595 690.067, 595 693 C 595 695.767, 594.726 696, 591.469 696 C 589.252 696, 587.723 695.441, 587.362 694.500 C 587.045 693.675, 585.709 693, 584.393 693 C 582.933 693, 582 692.415, 582 691.500 C 582 690.500, 581 690, 579 690 C 577 690, 576 689.500, 576 688.500 C 576 687.675, 575.550 687, 575 687 C 574.450 687, 574 689.025, 574 691.500 L 574 696 578 696 C 580.200 696, 582 696.450, 582 697 C 582 697.550, 583.077 698, 584.393 698 C 585.709 698, 587.045 698.675, 587.362 699.500 C 587.798 700.637, 589.641 701, 594.969 701 C 600.667 701, 602.379 701.379, 604 703 C 605.100 704.100, 606 705.450, 606 706 C 606 706.550, 608.475 707, 611.500 707 L 617 707 617 710.500 C 617 713.567, 617.310 714, 619.500 714 C 621.690 714, 622 713.567, 622 710.500 C 622 707.433, 622.310 707, 624.500 707 C 626.681 707, 627 707.438, 627 710.430 C 627 713.227, 626.584 713.920, 624.750 714.180 C 621.549 714.635, 621.553 719.366, 624.754 719.820 C 626.107 720.012, 627.250 719.512, 627.611 718.570 C 628.045 717.439, 629.583 717, 633.107 717 L 638 717 638 721 L 638 725 643.427 725 C 647.775 725, 648.933 725.348, 649.255 726.750 C 649.735 728.847, 653.234 721.500, 659.612 705 C 662.057 698.675, 664.926 691.475, 665.987 689 C 669.042 681.879, 677.214 661.092, 685.646 639 C 687.010 635.425, 689.188 629.800, 690.484 626.500 C 691.781 623.200, 694.406 616.450, 696.317 611.500 C 698.229 606.550, 701.366 598.450, 703.287 593.500 C 705.209 588.550, 707.997 581.350, 709.482 577.500 C 710.966 573.650, 713.666 566.675, 715.482 562 C 717.297 557.325, 719.993 550.350, 721.472 546.500 C 722.952 542.650, 725.251 536.688, 726.582 533.250 C 727.912 529.813, 730.174 523.962, 731.609 520.250 C 738.039 503.615, 741.174 495.574, 746.327 482.500 C 749.362 474.800, 752.744 466.025, 753.844 463 C 754.943 459.975, 757.274 453.900, 759.024 449.500 C 762.365 441.095, 767.403 427.937, 771.466 417 C 772.794 413.425, 775.510 406.225, 777.500 401 C 785.691 379.498, 787 374.885, 786.989 367.562 C 786.972 356.393, 783.811 347.814, 776.660 339.531 C 771.187 333.191, 761.413 327.306, 753.112 325.352 C 746.288 323.746, 734.448 323.748, 726.984 325.356 M 947.083 325.523 C 936.377 328.530, 924.996 337.005, 918.519 346.791 C 917.137 348.880, 914.250 355.294, 912.103 361.045 C 909.957 366.795, 906.760 375.100, 904.998 379.500 C 903.237 383.900, 900.313 391.325, 898.500 396 C 896.687 400.675, 893.778 408.100, 892.035 412.500 C 890.292 416.900, 888.032 422.750, 887.011 425.500 C 885.991 428.250, 883.295 435.225, 881.021 441 C 878.747 446.775, 875.825 454.425, 874.529 458 C 873.232 461.575, 870.174 469.450, 867.732 475.500 C 865.290 481.550, 862.718 488.300, 862.016 490.500 C 861.314 492.700, 860.400 494.950, 859.986 495.500 C 859.571 496.050, 858.078 499.650, 856.668 503.500 C 855.258 507.350, 852.701 514.100, 850.985 518.500 C 849.270 522.900, 847.059 528.750, 846.071 531.500 C 845.083 534.250, 843.344 538.750, 842.206 541.500 C 841.068 544.250, 838.566 550.550, 836.647 555.500 C 834.728 560.450, 829.298 574.290, 824.579 586.255 C 819.861 598.220, 816 608.248, 816 608.539 C 816 609.071, 813.163 616.370, 799.300 651.500 C 795.176 661.950, 790.672 673.425, 789.292 677 C 787.911 680.575, 785.222 687.465, 783.316 692.311 C 781.410 697.158, 779.014 703.458, 777.992 706.311 C 776.970 709.165, 774.713 715.100, 772.977 719.500 C 771.241 723.900, 768.573 730.875, 767.049 735 C 765.525 739.125, 762.366 747.675, 760.028 754 C 757.691 760.325, 755.204 766.850, 754.501 768.500 C 751.766 774.918, 751.763 775.724, 754.469 776.403 C 756.079 776.807, 757 777.738, 757 778.960 C 757 781.636, 755.325 782.397, 754.115 780.271 C 753.314 778.864, 752.736 778.727, 751.303 779.602 C 750.312 780.208, 749.356 781.671, 749.180 782.852 C 748.924 784.575, 749.369 785, 751.430 785 C 752.844 785, 754 785.450, 754 786 C 754 786.550, 755.125 787, 756.500 787 C 758.500 787, 759 787.500, 759 789.500 L 759 792 769 792 C 777.222 792, 779 792.267, 779 793.500 C 779 794.633, 780.222 795, 784 795 C 787.778 795, 789 794.633, 789 793.500 C 789 792.292, 790.556 792, 797 792 L 805 792 805 795.066 C 805 797.822, 805.279 798.101, 807.750 797.816 C 809.719 797.590, 810.591 796.861, 810.820 795.250 C 811.246 792.244, 812.650 792.389, 813.245 795.500 C 813.565 797.176, 813.274 798, 812.361 798 C 811.576 798, 811 799.058, 811 800.500 C 811 802.833, 811.333 803, 816 803 C 820.593 803, 821 803.193, 821 805.369 C 821 807.292, 821.645 807.843, 824.427 808.295 C 828.268 808.918, 832 808.222, 832 806.883 C 832 806.398, 832.675 806, 833.500 806 C 834.325 806, 835 806.450, 835 807 C 835 807.550, 836.523 808, 838.383 808 C 841.047 808, 841.895 807.521, 842.370 805.750 C 843.613 801.112, 843.154 800, 840 800 C 838.350 800, 837 799.550, 837 799 C 837 798.450, 838.350 798, 840 798 C 841.650 798, 843 798.450, 843 799 C 843 801.478, 844.812 799.573, 846.813 794.990 C 848.016 792.235, 849 789.756, 849 789.481 C 849 789.039, 853.510 778.013, 859.015 765 C 862.363 757.084, 874 727.110, 874 726.402 C 874 726.026, 874.864 723.870, 875.920 721.610 C 876.976 719.349, 880.190 711.425, 883.062 704 C 885.934 696.575, 889.516 687.350, 891.021 683.500 C 905.849 645.578, 912.045 629.473, 915.456 620 C 916.743 616.425, 919.606 609, 921.819 603.500 C 925.470 594.424, 930.927 580.483, 937.673 563 C 939.053 559.425, 941.666 552.675, 943.482 548 C 945.297 543.325, 947.997 536.350, 949.482 532.500 C 950.966 528.650, 953.666 521.675, 955.482 517 C 957.297 512.325, 959.972 505.350, 961.427 501.500 C 962.881 497.650, 964.786 492.925, 965.661 491 C 966.535 489.075, 968.292 484.575, 969.567 481 C 971.907 474.437, 976.650 461.947, 981.338 450 C 982.741 446.425, 985.059 440.350, 986.489 436.500 C 987.919 432.650, 991.061 424.550, 993.472 418.500 C 1006.456 385.912, 1009.438 376.258, 1009.377 367 C 1009.255 348.592, 998.600 333.680, 980.600 326.723 C 973.652 324.037, 954.776 323.362, 947.083 325.523 M 423.195 539.750 C 423.363 542.362, 423.950 544.500, 424.500 544.500 C 425.050 544.500, 425.637 542.362, 425.805 539.750 C 426.050 535.924, 425.796 535, 424.500 535 C 423.204 535, 422.950 535.924, 423.195 539.750 M 453 582 C 453 584.750, 453.450 587, 454 587 C 454.550 587, 455 584.750, 455 582 C 455 579.250, 454.550 577, 454 577 C 453.450 577, 453 579.250, 453 582 M 477 600.559 C 477 601.416, 477.450 601.840, 478 601.500 C 478.550 601.160, 479 600.459, 479 599.941 C 479 599.423, 478.550 599, 478 599 C 477.450 599, 477 599.702, 477 600.559 M 568.630 676.250 C 568.299 677.487, 568.021 679.676, 568.014 681.114 C 568.001 683.469, 568.461 683.791, 572.640 684.364 C 579.876 685.356, 582 685.160, 582 683.500 C 582 682.675, 581.325 682, 580.500 682 C 579.675 682, 579 681.325, 579 680.500 C 579 679.675, 578.518 679, 577.929 679 C 577.339 679, 576.214 678.357, 575.429 677.571 C 574.643 676.786, 574 675.661, 574 675.071 C 574 674.482, 572.927 674, 571.617 674 C 569.990 674, 569.042 674.715, 568.630 676.250 M 593.079 683.583 C 593.127 684.748, 593.364 684.985, 593.683 684.188 C 593.972 683.466, 593.936 682.603, 593.604 682.271 C 593.272 681.939, 593.036 682.529, 593.079 683.583 M 601 711.500 L 601 717 605 717 C 608.956 717, 610.401 715.475, 607.500 714.362 C 606.675 714.045, 606 712.709, 606 711.393 C 606 709.933, 605.415 709, 604.500 709 C 603.675 709, 603 708.325, 603 707.500 C 603 706.675, 602.550 706, 602 706 C 601.450 706, 601 708.475, 601 711.500 M 759 783 C 759 783.550, 760.800 784, 763 784 C 765.200 784, 767 783.550, 767 783 C 767 782.450, 765.200 782, 763 782 C 760.800 782, 759 782.450, 759 783 M 776 783 C 776 783.550, 776.450 784, 777 784 C 777.550 784, 778 785.025, 778 786.278 C 778 789.440, 781.361 792, 785.511 792 L 789 792 789 787 L 789 782 782.500 782 C 778.833 782, 776 782.436, 776 783 M 829 799 C 829 799.550, 829.675 800, 830.500 800 C 831.325 800, 832 799.550, 832 799 C 832 798.450, 831.325 798, 830.500 798 C 829.675 798, 829 798.450, 829 799 M 279.935 850.750 C 279.264 852.813, 278.104 855.388, 277.358 856.473 C 276.611 857.557, 276 859.146, 276 860.003 C 276 860.860, 274.425 865.295, 272.500 869.860 C 270.575 874.424, 269 878.933, 269 879.879 C 269 880.826, 268.438 882.162, 267.750 882.850 C 266.896 883.704, 266.500 887.713, 266.500 895.499 C 266.500 903.285, 266.896 907.295, 267.750 908.149 C 268.438 908.837, 269 910.216, 269 911.214 C 269 913.385, 270.687 916.484, 273.750 919.940 C 274.988 921.337, 276 922.957, 276 923.539 C 276 925.174, 290.834 934.365, 297 936.551 C 302.787 938.602, 318.675 939.290, 324.250 937.731 L 327 936.962 327 918.481 L 327 900 321.500 900 L 316 900 316 891.651 C 316 887.059, 315.709 879.859, 315.353 875.651 C 314.746 868.467, 314.563 868, 312.353 868 C 310.167 868, 310 867.609, 310 862.500 C 310 857.300, 309.864 857, 307.500 857 C 305.514 857, 305 856.497, 305 854.552 C 305 852.304, 304.571 852.080, 299.750 851.802 C 295.176 851.539, 294.459 851.210, 294.180 849.250 C 293.887 847.186, 293.335 847, 287.508 847 L 281.155 847 279.935 850.750 M 289 927 C 289 931.667, 289.167 932, 291.500 932 C 293.833 932, 294 931.667, 294 927 C 294 922.333, 293.833 922, 291.500 922 C 289.167 922, 289 922.333, 289 927" stroke="none" fill="black" fill-rule="evenodd"/>
</svg>