<?xml version="1.0" standalone="no"?>
<!DOCTYPE svg PUBLIC "-//W3C//DTD SVG 20010904//EN"
 "http://www.w3.org/TR/2001/REC-SVG-20010904/DTD/svg10.dtd">
<svg version="1.0" xmlns="http://www.w3.org/2000/svg"
 width="1280.000000pt" height="1280.000000pt" viewBox="0 0 1280.000000 1280.000000"
 preserveAspectRatio="xMidYMid meet">

<g transform="translate(0.000000,1280.000000) scale(0.100000,-0.100000)"
fill="#000000" stroke="none">
<path d="M5085 9570 c-152 -31 -289 -130 -353 -255 -20 -40 -157 -388 -518
-1315 -147 -377 -163 -418 -184 -475 -10 -27 -52 -135 -93 -240 -41 -104 -109
-280 -151 -390 -42 -110 -83 -216 -91 -235 -8 -19 -52 -134 -99 -255 -47 -121
-137 -355 -202 -520 -64 -165 -136 -349 -159 -410 -24 -60 -80 -204 -125 -320
-46 -115 -111 -282 -145 -370 -138 -357 -219 -566 -260 -670 -57 -142 -68
-198 -63 -309 4 -78 9 -101 37 -158 45 -90 116 -160 204 -203 92 -43 141 -54
248 -55 191 0 362 98 446 255 33 64 125 294 338 844 136 352 362 937 439 1136
49 125 202 517 251 645 19 47 55 139 80 205 26 66 73 188 105 270 113 294 232
601 266 690 309 784 590 1527 605 1595 19 89 7 208 -29 285 -88 188 -327 299
-547 255z"/>
<path d="M7285 9565 c-82 -18 -139 -44 -211 -98 -80 -59 -130 -135 -192 -294
-28 -70 -99 -249 -157 -398 -59 -148 -138 -351 -175 -450 -38 -99 -109 -283
-159 -410 -50 -126 -102 -259 -116 -295 -14 -36 -59 -153 -101 -260 -42 -107
-134 -346 -205 -530 -71 -184 -172 -443 -224 -575 -51 -132 -134 -346 -183
-475 -81 -212 -137 -357 -237 -610 -18 -47 -70 -179 -114 -295 -44 -115 -123
-320 -176 -455 -155 -394 -176 -456 -182 -540 -16 -230 119 -416 344 -475 75
-20 215 -19 284 1 134 40 253 133 309 244 17 33 50 110 74 172 24 62 116 298
205 525 88 227 190 488 225 580 35 92 141 366 236 608 233 598 315 809 623
1605 146 377 291 750 322 830 320 821 401 1040 410 1105 3 28 1 82 -5 120 -40
263 -313 433 -595 370z"/>
<path d="M9515 9570 c-168 -34 -327 -162 -381 -307 -10 -27 -51 -133 -91 -238
-41 -104 -124 -318 -185 -475 -60 -157 -153 -395 -206 -530 -52 -135 -136
-353 -187 -485 -50 -132 -129 -334 -175 -450 -45 -115 -111 -284 -145 -375
-52 -135 -302 -778 -424 -1090 -41 -103 -154 -396 -196 -505 -19 -49 -82 -211
-141 -360 -58 -148 -130 -333 -159 -410 -29 -77 -70 -183 -90 -235 -48 -122
-65 -190 -65 -265 1 -123 42 -224 126 -309 232 -236 666 -176 818 113 20 38
52 111 72 162 68 178 156 404 209 539 29 74 108 277 175 450 67 173 201 518
297 765 97 248 234 601 305 785 71 184 166 427 210 540 118 302 360 927 443
1145 40 105 110 285 155 400 158 410 212 561 223 623 13 81 -3 191 -38 266
-86 181 -330 290 -550 246z"/>
</g>
</svg>
